<svg width="121" height="121" viewBox="0 0 121 121" fill="none" xmlns="http://www.w3.org/2000/svg">
<g clip-path="url(#clip0_55_259)">
<rect width="121" height="121" rx="6" fill="#B4D1EF"/>
<line x1="-99.5355" y1="118.648" x2="95.6259" y2="-76.5134" stroke="#8AAED2" stroke-width="10"/>
<line x1="-82.5651" y1="135.619" x2="112.596" y2="-59.5427" stroke="#8AAED2" stroke-width="10"/>
<line x1="-65.5944" y1="152.589" x2="129.567" y2="-42.5725" stroke="#8AAED2" stroke-width="10"/>
<line x1="-48.6239" y1="169.56" x2="146.538" y2="-25.6018" stroke="#8AAED2" stroke-width="10"/>
<line x1="-31.6532" y1="186.53" x2="163.508" y2="-8.63108" stroke="#8AAED2" stroke-width="10"/>
<line x1="-14.6828" y1="203.501" x2="180.479" y2="8.33962" stroke="#8AAED2" stroke-width="10"/>
<line x1="2.28795" y1="220.471" x2="197.449" y2="25.3098" stroke="#8AAED2" stroke-width="10"/>
<line x1="19.2584" y1="237.442" x2="214.42" y2="42.2805" stroke="#8AAED2" stroke-width="10"/>
<path d="M47.3417 32.373H83.1184L71.9883 49.0052H86.9168L44.3719 88.6002L51.7102 65.0937H34.3887L47.3417 32.373Z" fill="white"/>
<path d="M44.3717 90.9867C43.9342 90.9867 43.4968 90.8674 43.1056 90.6221C42.1908 90.0454 41.7798 88.9318 42.098 87.8976L48.4685 67.4803H34.3819C33.593 67.4803 32.8572 67.0892 32.4131 66.4396C31.9689 65.79 31.8761 64.9613 32.1678 64.2255L45.1274 31.5048C45.4854 30.5966 46.3671 30 47.3416 30H83.1182C83.9999 30 84.8019 30.4839 85.2196 31.2595C85.6372 32.0351 85.5908 32.9764 85.1003 33.7056L76.4561 46.6321H86.9233C87.9044 46.6321 88.7794 47.2287 89.1373 48.1435C89.4953 49.0584 89.2566 50.0925 88.5407 50.762L45.9959 90.3636C45.5451 90.7879 44.9617 91 44.3717 91V90.9867ZM37.8886 62.7141H51.7034C52.4591 62.7141 53.1751 63.072 53.6192 63.6819C54.07 64.2918 54.2026 65.0806 53.9772 65.8032L49.317 80.7449L80.8644 51.3851H71.9881C71.1065 51.3851 70.3044 50.9012 69.8868 50.1256C69.4692 49.35 69.5155 48.4087 70.0061 47.6795L78.6503 34.753H48.9524L37.882 62.7075L37.8886 62.7141Z" fill="black"/>
</g>
<defs>
<clipPath id="clip0_55_259">
<rect width="121" height="121" rx="6" fill="white"/>
</clipPath>
</defs>
</svg>
