<svg xmlns="http://www.w3.org/2000/svg" width="121" height="121" viewBox="0 0 121 121" fill="none">
<g clip-path="url(#clip0_55_310)">
<rect width="121" height="121" rx="6" fill="#FDEDD3"/>
<line x1="-99.5355" y1="118.648" x2="95.6259" y2="-76.5134" stroke="#FFDBA0" stroke-width="10"/>
<line x1="-82.5651" y1="135.619" x2="112.596" y2="-59.5427" stroke="#FFDBA0" stroke-width="10"/>
<line x1="-65.5944" y1="152.589" x2="129.567" y2="-42.5725" stroke="#FFDBA0" stroke-width="10"/>
<line x1="-48.6239" y1="169.56" x2="146.538" y2="-25.6018" stroke="#FFDBA0" stroke-width="10"/>
<line x1="-31.6532" y1="186.53" x2="163.508" y2="-8.63108" stroke="#FFDBA0" stroke-width="10"/>
<line x1="-14.6828" y1="203.501" x2="180.479" y2="8.33962" stroke="#FFDBA0" stroke-width="10"/>
<line x1="2.28795" y1="220.471" x2="197.449" y2="25.3098" stroke="#FFDBA0" stroke-width="10"/>
<line x1="19.2584" y1="237.442" x2="214.42" y2="42.2805" stroke="#FFDBA0" stroke-width="10"/>
<path d="M60.0077 28.6787L67.3646 45.7006L93.1029 36.3494L78.4188 60.3548L93.1029 79.1394L68.0667 72.97L56.2956 92.0384L53.3154 72.0886L30.7441 79.834L46.0705 59.5631L28.6826 43.6541L54.5254 48.2401L60.0077 28.6787Z" fill="white"/>
<path d="M56.2954 94.7198C56.1162 94.7198 55.9369 94.7049 55.7576 94.6676C54.6522 94.4435 53.8082 93.5472 53.6439 92.4343L51.1343 75.6738L31.6178 82.3735C30.5049 82.7545 29.265 82.3661 28.5779 81.41C27.8833 80.454 27.8982 79.1544 28.6078 78.2208L42.4628 59.8993L26.875 45.6409C25.9936 44.8342 25.7472 43.5421 26.2775 42.474C26.8078 41.406 27.9804 40.8084 29.153 41.0176L52.6057 45.1778L57.4307 27.9617C57.7369 26.8638 58.7005 26.087 59.8357 26.0049C60.9561 25.9376 62.0316 26.5725 62.4798 27.6181L68.8359 42.3172L92.199 33.8249C93.2745 33.4365 94.4696 33.7652 95.1941 34.6465C95.9185 35.5279 96.0007 36.7752 95.4032 37.7461L81.6901 60.1682L95.2314 77.4888C95.9335 78.3926 95.9932 79.6399 95.3733 80.6034C94.7534 81.5669 93.5882 82.0225 92.4828 81.7536L69.3438 76.0548L58.6033 93.4576C58.1104 94.2568 57.2365 94.7348 56.3178 94.7348L56.2954 94.7198ZM53.3153 69.4073C53.8008 69.4073 54.2863 69.5418 54.7045 69.7957C55.3842 70.2065 55.8473 70.9011 55.9668 71.6928L57.8639 84.3827L65.7736 71.5584C66.3861 70.5725 67.5662 70.087 68.7015 70.3634L86.2014 74.673L76.2974 62.0055C75.6103 61.1242 75.5356 59.9067 76.1182 58.9507L86.8064 41.4806L68.2757 48.2177C66.9388 48.7032 65.4599 48.0683 64.8922 46.7612L60.5378 36.6855L57.1021 48.9571C56.7286 50.2866 55.4141 51.1232 54.0473 50.8767L37.2943 47.904L47.8704 57.5764C48.8936 58.51 49.0355 60.071 48.199 61.1764L38.1681 74.4414L52.4264 69.5492C52.7103 69.4521 53.0016 69.4073 53.3004 69.4073H53.3153Z" fill="black"/>
</g>
<defs>
<clipPath id="clip0_55_310">
<rect width="121" height="121" rx="6" fill="white"/>
</clipPath>
</defs>
</svg>