<svg width="121" height="121" viewBox="0 0 121 121" fill="none" xmlns="http://www.w3.org/2000/svg">
<g clip-path="url(#clip0_55_358)">
<rect width="121" height="121" rx="6" fill="#FDB57B"/>
<line x1="-99.5355" y1="118.648" x2="95.6259" y2="-76.5134" stroke="#E89756" stroke-width="10"/>
<line x1="-82.5651" y1="135.619" x2="112.596" y2="-59.5427" stroke="#E89756" stroke-width="10"/>
<line x1="-65.5944" y1="152.589" x2="129.567" y2="-42.5725" stroke="#E89756" stroke-width="10"/>
<line x1="-48.6239" y1="169.56" x2="146.538" y2="-25.6018" stroke="#E89756" stroke-width="10"/>
<line x1="-31.6532" y1="186.53" x2="163.508" y2="-8.63108" stroke="#E89756" stroke-width="10"/>
<line x1="-14.6828" y1="203.501" x2="180.479" y2="8.33962" stroke="#E89756" stroke-width="10"/>
<line x1="2.28795" y1="220.471" x2="197.449" y2="25.3098" stroke="#E89756" stroke-width="10"/>
<line x1="19.2584" y1="237.442" x2="214.42" y2="42.2805" stroke="#E89756" stroke-width="10"/>
<path d="M40.8776 91.8396L40.214 92.1861L40.3393 91.4488C42.6914 77.7421 38.1495 63.7626 28.1884 54.0522L27.6501 53.5287L28.3875 53.4181C42.1458 51.4199 54.046 42.7786 60.1952 30.3106L60.527 29.6396L60.8588 30.3106C67.0154 42.7786 78.9083 51.4199 92.6666 53.4181L93.4039 53.5287L92.8657 54.0522C82.9119 63.7552 78.3627 77.7421 80.7147 91.4488L80.84 92.1861L80.1765 91.8396C67.8707 85.366 53.1686 85.366 40.8555 91.8396H40.8776Z" fill="white"/>
<path d="M40.2143 94.8329C39.6614 94.8329 39.1157 94.6634 38.6586 94.3242C37.8402 93.7344 37.4347 92.7242 37.6042 91.7362L37.7296 90.9989C39.9341 78.1549 35.6725 65.0528 26.3381 55.9543L25.7998 55.4309C25.0773 54.723 24.8192 53.6761 25.1289 52.7175C25.4385 51.759 26.2717 51.0586 27.2671 50.9185L28.0044 50.8079C40.9 48.9351 52.0482 40.8394 57.8214 29.1456L58.1532 28.4746C58.5956 27.5677 59.5172 27 60.5274 27C61.5375 27 62.4591 27.5751 62.9015 28.4746L63.2333 29.1456C68.9991 40.832 80.1473 48.9351 93.0503 50.8079L93.7877 50.9185C94.783 51.066 95.6162 51.759 95.9259 52.7175C96.2355 53.6761 95.9775 54.7304 95.2549 55.4309L94.7167 55.9543C85.3822 65.0528 81.1206 78.1549 83.3252 91.0063L83.4505 91.7436C83.6201 92.739 83.2145 93.7418 82.3961 94.3316C81.5777 94.9215 80.5012 95.0026 79.6091 94.5381L78.9455 94.1915C67.4065 88.1234 53.6261 88.1234 42.0945 94.1915L41.4309 94.5381C41.0401 94.7445 40.6199 94.8403 40.1996 94.8403L40.2143 94.8329ZM60.5347 84.3336C66.3374 84.3336 72.1327 85.4543 77.6036 87.7032C76.7041 75.9209 80.5012 64.2491 88.1546 55.2392C76.6672 52.4521 66.7429 45.2338 60.5421 35.1768C54.3413 45.2338 44.4097 52.4521 32.9297 55.2392C40.583 64.2418 44.3728 75.9135 43.4806 87.7032C48.9441 85.4543 54.7468 84.3336 60.5495 84.3336H60.5347Z" fill="black"/>
</g>
<defs>
<clipPath id="clip0_55_358">
<rect width="121" height="121" rx="6" fill="white"/>
</clipPath>
</defs>
</svg>
