<svg width="121" height="121" viewBox="0 0 121 121" fill="none" xmlns="http://www.w3.org/2000/svg">
<g clip-path="url(#clip0_55_375)">
<rect width="121" height="121" rx="6" fill="#F3CDFE"/>
<line x1="-99.5355" y1="118.648" x2="95.6259" y2="-76.5134" stroke="#CE85E3" stroke-width="10"/>
<line x1="-82.5651" y1="135.619" x2="112.596" y2="-59.5427" stroke="#CE85E3" stroke-width="10"/>
<line x1="-65.5944" y1="152.589" x2="129.567" y2="-42.5725" stroke="#CE85E3" stroke-width="10"/>
<line x1="-48.6239" y1="169.56" x2="146.538" y2="-25.6018" stroke="#CE85E3" stroke-width="10"/>
<line x1="-31.6532" y1="186.53" x2="163.508" y2="-8.63108" stroke="#CE85E3" stroke-width="10"/>
<line x1="-14.6828" y1="203.501" x2="180.479" y2="8.33962" stroke="#CE85E3" stroke-width="10"/>
<line x1="2.28795" y1="220.471" x2="197.449" y2="25.3098" stroke="#CE85E3" stroke-width="10"/>
<line x1="19.2584" y1="237.442" x2="214.42" y2="42.2805" stroke="#CE85E3" stroke-width="10"/>
<path d="M69.0382 90.6994L91.1628 60.5857L91.3977 60.2678L91.5169 60.0871C93.7138 56.9073 94.7545 52.9218 94.1077 48.8026C93.2369 43.2344 89.526 38.8189 84.6841 36.7954C86.4944 38.9164 87.759 41.547 88.2215 44.5063C88.8647 48.6255 87.8241 52.6111 85.6308 55.7908L85.5115 55.9715L85.2767 56.2895L63.1521 86.4031L69.0419 90.6994H69.0382Z" fill="#A29F9F"/>
<path d="M56.4057 42.9886L51.571 39.4584C48.2829 36.8748 43.9685 35.6138 39.5096 36.3111C30.9857 37.6445 25.1574 45.6336 26.4907 54.1575C27.1339 58.2767 29.3417 61.7528 32.4022 64.1123C32.4022 64.1123 32.7671 64.3941 32.8466 64.4519L63.1482 86.4067L85.2727 56.293L85.5076 55.975L85.6268 55.7907C87.8238 52.611 88.8644 48.6255 88.2176 44.5062C86.8843 35.9823 78.8952 30.154 70.3713 31.4873C65.9124 32.1847 62.1906 34.7032 59.8456 38.1684L56.4021 42.9886H56.4057Z" fill="white"/>
<path d="M46.7579 65.2975L43.8528 63.1765C43.2638 62.7465 42.44 62.8766 42.01 63.4656C41.58 64.0545 41.7101 64.8784 42.2991 65.3084L45.2042 67.4294C45.7932 67.8594 46.617 67.7293 47.047 67.1403C47.477 66.5514 47.3469 65.7275 46.7579 65.2975Z" fill="black"/>
<path d="M42.2706 44.9318C42.7006 44.3429 42.5705 43.519 41.9816 43.089L39.0764 40.968C38.4874 40.538 37.6636 40.6681 37.2336 41.2571C36.8036 41.846 36.9337 42.6699 37.5227 43.0999L40.4278 45.2209C41.0168 45.6509 41.8406 45.5208 42.2706 44.9318Z" fill="black"/>
<path d="M62.5122 44.0326L65.851 42.6957C66.5267 42.4247 66.8555 41.6587 66.5845 40.9794C66.3135 40.3037 65.5475 39.9749 64.8681 40.2459L61.5294 41.5828C60.8537 41.8538 60.5249 42.6198 60.7959 43.2991C61.0669 43.9748 61.8329 44.3036 62.5122 44.0326Z" fill="black"/>
<path d="M55.9976 62.9558C56.2216 63.6495 56.9624 64.0325 57.6561 63.8085L61.0816 62.7101C61.7754 62.486 62.1584 61.7453 61.9343 61.0515C61.7103 60.3578 60.9696 59.9747 60.2758 60.1988L56.8504 61.2972C56.1566 61.5213 55.7736 62.262 55.9976 62.9558Z" fill="black"/>
<path d="M62.2701 68.8781L59.365 66.7571C58.776 66.3271 57.9522 66.4571 57.5222 67.0461C57.0922 67.6351 57.2223 68.4589 57.8113 68.8889L60.7164 71.01C61.3054 71.4399 62.1292 71.3099 62.5592 70.7209C62.9892 70.1319 62.8591 69.3081 62.2701 68.8781Z" fill="black"/>
<path d="M43.0727 51.3713C43.3039 50.6811 42.9317 49.9332 42.2416 49.7019C41.5514 49.4707 40.8035 49.8428 40.5722 50.533L39.4268 53.9404C39.1955 54.6305 39.5677 55.3785 40.2578 55.6098C40.948 55.841 41.696 55.4688 41.9272 54.7787L43.0727 51.3713Z" fill="black"/>
<path d="M71.9869 45.308C72.677 45.5392 73.425 45.1671 73.6562 44.4769L74.8017 41.0695C75.0329 40.3794 74.6607 39.6314 73.9706 39.4002C73.2804 39.1689 72.5325 39.5411 72.3012 40.2312L71.1558 43.6386C70.9245 44.3288 71.2967 45.0767 71.9869 45.308Z" fill="black"/>
<path d="M48.1317 56.3582C47.4416 56.1269 46.6936 56.4991 46.4624 57.1892L45.3169 60.5966C45.0857 61.2868 45.4578 62.0347 46.148 62.266C46.8381 62.4973 47.5861 62.1251 47.8174 61.4349L48.9628 58.0275C49.194 57.3374 48.8219 56.5894 48.1317 56.3582Z" fill="black"/>
<path d="M68.6587 66.5151C69.2874 66.1466 69.497 65.3372 69.1284 64.7085L67.3073 61.6046C66.9387 60.9759 66.1293 60.7663 65.5006 61.1349C64.8719 61.5034 64.6623 62.3128 65.0309 62.9415L66.852 66.0454C67.2206 66.6741 68.0299 66.8837 68.6587 66.5151Z" fill="black"/>
<path d="M72.3917 63.2302C71.7016 62.999 70.9536 63.3712 70.7224 64.0613L69.5769 67.4687C69.3457 68.1589 69.7178 68.9068 70.408 69.1381C71.0981 69.3693 71.8461 68.9972 72.0774 68.307L73.2228 64.8996C73.4541 64.2095 73.0819 63.4615 72.3917 63.2302Z" fill="black"/>
<path d="M63.307 51.6824C62.6169 51.4511 61.8689 51.8233 61.6376 52.5135L60.4922 55.9209C60.261 56.611 60.6331 57.359 61.3233 57.5902C62.0134 57.8215 62.7614 57.4493 62.9927 56.7592L64.1381 53.3518C64.3693 52.6616 63.9972 51.9137 63.307 51.6824Z" fill="black"/>
<path d="M69.1794 54.1829L68.034 57.5903C67.8027 58.2805 68.1749 59.0284 68.865 59.2597C69.5552 59.4909 70.3031 59.1187 70.5344 58.4286L71.6798 55.0212C71.9111 54.331 71.5389 53.5831 70.8488 53.3518C70.1586 53.1206 69.4106 53.4927 69.1794 54.1829Z" fill="black"/>
<path d="M44.9768 51.1945C45.2478 51.8702 46.0139 52.199 46.6932 51.928C47.3689 51.657 47.6977 50.891 47.4267 50.2116L46.0898 46.8729C45.8188 46.1972 45.0527 45.8684 44.3734 46.1394C43.6977 46.4104 43.3689 47.1764 43.6399 47.8558L44.9768 51.1945Z" fill="black"/>
<path d="M80.5462 43.2453C80.8172 43.921 81.5832 44.2498 82.2625 43.9788C82.9382 43.7078 83.267 42.9417 82.996 42.2624L81.6591 38.9237C81.3881 38.248 80.6221 37.9192 79.9427 38.1902C79.267 38.4612 78.9382 39.2272 79.2092 39.9065L80.5462 43.2453Z" fill="black"/>
<path d="M58.1147 54.2838C58.0027 53.5647 57.327 53.0733 56.6079 53.1853L53.056 53.7418C52.337 53.8538 51.8455 54.5295 51.9576 55.2486C52.0696 55.9676 52.7453 56.459 53.4643 56.347L57.0163 55.7906C57.7353 55.6785 58.2267 55.0029 58.1147 54.2838Z" fill="black"/>
<path d="M75.1595 48.9681L77.5913 51.6167C78.0827 52.1515 78.9174 52.1876 79.4558 51.6962C79.9906 51.2048 80.0267 50.3701 79.5353 49.8317L77.1035 47.1831C76.6121 46.6483 75.7774 46.6122 75.239 47.1036C74.7042 47.595 74.6681 48.4297 75.1595 48.9681Z" fill="black"/>
<path d="M80.1238 55.5198L76.5719 56.0763C75.8528 56.1883 75.3614 56.864 75.4734 57.583C75.5854 58.3021 76.2611 58.7935 76.9802 58.6815L80.5321 58.125C81.2512 58.013 81.7426 57.3373 81.6306 56.6183C81.5186 55.8992 80.8429 55.4078 80.1238 55.5198Z" fill="black"/>
<path d="M58.8231 72.2851L55.8747 74.3447C55.2784 74.7602 55.1303 75.584 55.5495 76.1802C55.965 76.7764 56.7888 76.9246 57.385 76.5054L60.3335 74.4458C60.9297 74.0303 61.0779 73.2064 60.6587 72.6102C60.2432 72.014 59.4194 71.8659 58.8231 72.2851Z" fill="black"/>
<path d="M65.121 47.7073L68.2863 49.4128C68.9259 49.7597 69.728 49.5176 70.0713 48.878C70.4182 48.2348 70.1761 47.4363 69.5365 47.093L66.3712 45.3875C65.7317 45.0406 64.9295 45.2827 64.5862 45.9223C64.2394 46.5618 64.4815 47.364 65.121 47.7073V47.7073Z" fill="black"/>
<path d="M56.6011 48.7014C56.948 48.0583 56.7059 47.2597 56.0663 46.9128L52.901 45.2073C52.2615 44.8605 51.4593 45.1025 51.116 45.7421C50.7691 46.3817 51.0112 47.1838 51.6508 47.5271L54.8161 49.2326C55.4557 49.5795 56.2578 49.3374 56.6011 48.6978V48.7014Z" fill="black"/>
<path d="M32.7132 50.5907C32.2976 49.9945 31.4738 49.8464 30.8776 50.2655C30.2814 50.6811 30.1332 51.5049 30.5524 52.1011L32.612 55.0496C33.0275 55.6458 33.8514 55.794 34.4476 55.3748C35.0438 54.9593 35.1919 54.1354 34.7728 53.5392L32.7132 50.5907Z" fill="black"/>
<path d="M95.3902 48.6C94.6928 44.1339 92.2972 40.2098 88.6477 37.5468C88.6441 37.5468 88.6405 37.5395 88.6369 37.5395L83.4192 33.76C83.2024 33.5865 82.9856 33.4167 82.7579 33.2541C79.1084 30.5911 74.6387 29.5071 70.1726 30.2081C65.5511 30.9307 61.3958 33.5685 58.7906 37.4167L56.1094 41.171L52.3696 38.4393C48.6876 35.5522 43.9288 34.3056 39.3074 35.0319C34.8413 35.7292 30.9172 38.1249 28.2541 41.7744C25.5911 45.4239 24.5071 49.8936 25.2081 54.3597C25.8801 58.6524 28.1529 62.4789 31.6073 65.1383C31.6073 65.1383 32.0048 65.4455 32.0843 65.5033L37.3923 69.3479C37.4284 69.3768 37.4609 69.4093 37.4971 69.4382C37.4971 69.4382 37.8945 69.7454 37.974 69.7996L68.2792 91.7543C68.5105 91.9205 68.7742 92 69.0416 92C69.4391 92 69.833 91.8157 70.0895 91.4724L92.4489 61.0408C92.4489 61.0408 92.4742 61.0047 92.4851 60.9866L92.5899 60.8276C95.0722 57.2395 96.0695 52.8963 95.3974 48.6072L95.3902 48.6ZM61.0886 83.3063C61.4536 83.0461 61.6776 82.6089 61.6379 82.1283L61.3416 78.5439C61.2802 77.8176 60.6442 77.2792 59.9179 77.337C59.1916 77.3984 58.6532 78.0344 58.7111 78.7607L58.9604 81.7634L48.9731 74.5258C49.5151 74.515 50.0137 74.1753 50.1944 73.6333L51.3398 70.2259C51.5711 69.5358 51.1989 68.7878 50.5088 68.5566C49.8186 68.3253 49.0706 68.6975 48.8394 69.3876L47.6939 72.795C47.6036 73.066 47.6072 73.3443 47.6831 73.5972L36.4058 65.4274C36.6913 65.2756 36.9225 65.0191 37.0346 64.6867L38.18 61.2793C38.4112 60.5891 38.0391 59.8412 37.3489 59.6099C36.6588 59.3786 35.9108 59.7508 35.6795 60.441L34.5341 63.8484C34.5124 63.9134 34.5016 63.9784 34.4908 64.0399L33.6019 63.3967C33.5188 63.3353 33.2008 63.0896 33.1936 63.0859C30.2631 60.8312 28.3372 57.59 27.7699 53.9622C27.1773 50.1827 28.0951 46.3995 30.3499 43.3101C30.769 42.7355 31.2387 42.208 31.7302 41.7094L31.694 43.2161C31.676 43.946 32.2541 44.5494 32.984 44.5639C33.7139 44.582 34.3173 44.0038 34.3318 43.2739L34.4149 39.6787C34.4149 39.6353 34.4076 39.5955 34.404 39.5522C36.0011 38.5657 37.797 37.8973 39.7084 37.5974C40.4383 37.4853 41.1718 37.4275 41.9017 37.4275C43.8891 37.4275 45.862 37.8431 47.6867 38.6452L44.4636 39.1475C43.7446 39.2595 43.2531 39.9352 43.3652 40.6542C43.4772 41.3733 44.1529 41.8647 44.8719 41.7527L48.4238 41.1962C49.1429 41.0842 49.6343 40.4085 49.5223 39.6895C49.5187 39.6606 49.5078 39.6353 49.5006 39.61C49.9451 39.8882 50.3859 40.1809 50.8014 40.5061L55.6361 44.0364C55.9143 44.2423 56.2648 44.3218 56.6081 44.2712C56.9514 44.217 57.2549 44.0255 57.4572 43.7437L60.9188 38.8945C62.6135 36.3905 65.0597 34.5007 67.8637 33.4709L67.7806 37.0517C67.7625 37.7816 68.3407 38.3851 69.0705 38.3995C69.8004 38.4176 70.4039 37.8394 70.4183 37.1095L70.5014 33.5143C70.5087 33.2577 70.4364 33.0156 70.3135 32.8097C70.4003 32.7952 70.4834 32.7771 70.5701 32.7627C72.7526 32.423 74.9314 32.6001 76.9838 33.2288L74.9423 33.5468C74.2232 33.6588 73.7318 34.3345 73.8438 35.0535C73.9558 35.7726 74.6315 36.264 75.3506 36.152L78.9025 35.5956C79.4698 35.5052 79.8889 35.068 79.9901 34.5332C80.4093 34.7789 80.8212 35.0463 81.2222 35.339C84.3117 37.5937 86.3388 40.918 86.9314 44.6976C87.0795 45.6443 87.1265 46.5946 87.0831 47.5341C87.0108 47.4727 86.9313 47.4148 86.8446 47.3679L83.6793 45.6624C83.0398 45.3155 82.2376 45.5576 81.8943 46.1971C81.5475 46.8367 81.7896 47.6389 82.4291 47.9821L85.5944 49.6876C85.9883 49.9008 86.4399 49.89 86.8121 49.7021C86.4291 51.5955 85.6739 53.4202 84.5393 55.0643L69.6523 75.3352L69.4897 73.3659C69.4283 72.6397 68.7923 72.1013 68.066 72.1591C67.3397 72.2205 66.8014 72.8564 66.8592 73.5827L67.1555 77.1672C67.1844 77.5394 67.3687 77.8573 67.636 78.0777L62.8592 84.5818L61.0814 83.2918L61.0886 83.3063ZM90.4327 59.3714L68.7562 88.8925L64.9549 86.1391L86.5519 56.7409C86.5519 56.7409 86.5772 56.7048 86.5881 56.6867L86.6929 56.5277C89.1752 52.9361 90.1725 48.5964 89.5004 44.3074C89.3162 43.133 89.0126 42.002 88.6043 40.9144C90.8482 43.0716 92.3333 45.8756 92.8247 49.0047C93.392 52.6361 92.5465 56.3109 90.4327 59.3714Z" fill="black"/>
</g>
<defs>
<clipPath id="clip0_55_375">
<rect width="121" height="121" rx="6" fill="white"/>
</clipPath>
</defs>
</svg>
